<svg width="51" height="50" viewBox="0 0 51 50" fill="none" xmlns="http://www.w3.org/2000/svg">
<path d="M11.1922 50H0.825911V16.6176H11.1922V50ZM6.00348 12.0639C2.68868 12.0639 0 9.31829 0 6.00348C2.3726e-08 4.41126 0.632508 2.88425 1.75838 1.75838C2.88425 0.632508 4.41126 0 6.00348 0C7.59571 0 9.12271 0.632508 10.2486 1.75838C11.3745 2.88425 12.007 4.41126 12.007 6.00348C12.007 9.31829 9.31717 12.0639 6.00348 12.0639ZM49.99 50H39.646V33.7496C39.646 29.8768 39.5678 24.9102 34.2563 24.9102C28.8667 24.9102 28.0408 29.1178 28.0408 33.4706V50H17.6857V16.6176H27.6278V21.1712H27.7729C29.1569 18.5484 32.5376 15.7805 37.5812 15.7805C48.0725 15.7805 50.0011 22.6891 50.0011 31.6625V50H49.99Z" fill="#fbd7d8"/>
</svg>
